<?xml version="1.0" encoding="UTF-8" standalone="no"?>
<!-- Created with Inkscape (http://www.inkscape.org/) -->

<svg
   version="1.1"
   id="svg6941"
   width="880"
   height="880"
   viewBox="0 0 880 880"
   sodipodi:docname="turkey-bird-publicdomainvectors.org.svg"
   inkscape:version="1.2 (dc2aedaf03, 2022-05-15)"
   xmlns:inkscape="http://www.inkscape.org/namespaces/inkscape"
   xmlns:sodipodi="http://sodipodi.sourceforge.net/DTD/sodipodi-0.dtd"
   xmlns="http://www.w3.org/2000/svg"
   xmlns:svg="http://www.w3.org/2000/svg">
  <defs
     id="defs6945">
    <clipPath
       clipPathUnits="userSpaceOnUse"
       id="clipPath6957">
      <path
         d="M 0,660 H 660 V 0 H 0 Z"
         id="path6955" />
    </clipPath>
  </defs>
  <sodipodi:namedview
     id="namedview6943"
     pagecolor="#ffffff"
     bordercolor="#000000"
     borderopacity="0.25"
     inkscape:showpageshadow="2"
     inkscape:pageopacity="0.0"
     inkscape:pagecheckerboard="0"
     inkscape:deskcolor="#d1d1d1"
     showgrid="false"
     inkscape:zoom="0.95113636"
     inkscape:cx="440.52569"
     inkscape:cy="440.52569"
     inkscape:window-width="1920"
     inkscape:window-height="1017"
     inkscape:window-x="-8"
     inkscape:window-y="-8"
     inkscape:window-maximized="1"
     inkscape:current-layer="g6949">
    <inkscape:page
       x="0"
       y="0"
       id="page6947"
       width="880"
       height="880" />
  </sodipodi:namedview>
  <g
     id="g6949"
     inkscape:groupmode="layer"
     inkscape:label="Page 1"
     transform="matrix(1.3333333,0,0,-1.3333333,0,880)">
    <g
       id="g6951">
      <g
         id="g6953"
         clip-path="url(#clipPath6957)">
        <g
           id="g6959"
           transform="translate(342.1738,72.6602)">
          <path
             d="M 0,0 C 92.564,0 168.062,8.57 168.062,19.079 168.062,29.586 92.564,38.155 0,38.155 -92.565,38.155 -168.063,29.586 -168.063,19.079 -168.063,8.57 -92.565,0 0,0"
             style="fill:#adda1a;fill-opacity:1;fill-rule:evenodd;stroke:none"
             id="path6961" />
        </g>
        <g
           id="g6963"
           transform="translate(451.875,420.9365)">
          <path
             d="m 0,0 c -18.878,6.307 -51.594,-40.71 -73.071,-105.013 -21.479,-64.301 -23.585,-121.541 -4.707,-127.847 18.879,-6.306 51.594,40.71 73.072,105.012 C 16.771,-63.545 18.879,-6.306 0,0"
             style="fill:#da8a38;fill-opacity:1;fill-rule:evenodd;stroke:none"
             id="path6965" />
        </g>
        <g
           id="g6967"
           transform="translate(409.7461,384.7773)">
          <path
             d="m 0,0 c -11.058,-18.195 -21.979,-42.016 -30.942,-68.853 -1.703,-5.094 -3.282,-10.145 -4.74,-15.129 11.902,2.4 24.572,1.813 36.911,-2.308 12.341,-4.122 22.82,-11.269 30.888,-20.338 1.831,4.861 3.604,9.844 5.306,14.94 8.963,26.838 14.551,52.441 16.649,73.628 -8.225,4.547 -16.974,8.42 -26.21,11.504 C 18.627,-3.472 9.308,-1.307 0,0"
             style="fill:#7e2b1a;fill-opacity:1;fill-rule:evenodd;stroke:none"
             id="path6969" />
        </g>
        <g
           id="g6971"
           transform="translate(369.374,283.2813)">
          <path
             d="m 0,0 c -12.145,-50.009 -10.876,-89.994 4.723,-95.205 15.599,-5.21 40.643,25.986 60.992,73.256 C 59.03,-11.829 49.036,-3.786 36.64,0.354 24.245,4.493 11.424,4.072 0,0"
             style="fill:#b0641d;fill-opacity:1;fill-rule:evenodd;stroke:none"
             id="path6973" />
        </g>
        <g
           id="g6975"
           transform="translate(536.7432,360.4521)">
          <path
             d="m 0,0 c -14.655,11.152 -57.334,-20.271 -95.324,-70.188 -37.992,-49.918 -56.909,-99.427 -42.255,-110.58 14.655,-11.155 57.333,20.27 95.326,70.187 C -4.263,-60.664 14.656,-11.154 0,0"
             style="fill:#da8a38;fill-opacity:1;fill-rule:evenodd;stroke:none"
             id="path6977" />
        </g>
        <g
           id="g6979"
           transform="translate(489.0557,341.3457)">
          <path
             d="m 0,0 c -15.111,-12.642 -31.782,-30.249 -47.637,-51.082 -3.011,-3.956 -5.899,-7.908 -8.663,-11.84 11.138,-1.447 22.061,-5.739 31.642,-13.03 9.58,-7.291 16.627,-16.676 20.99,-27.026 3.052,3.711 6.092,7.548 9.102,11.503 15.856,20.833 28.386,41.595 36.544,59.526 -5.85,6.437 -12.359,12.437 -19.528,17.895 C 15.281,-8.597 7.763,-3.923 0,0"
             style="fill:#7e2b1a;fill-opacity:1;fill-rule:evenodd;stroke:none"
             id="path6981" />
        </g>
        <g
           id="g6983"
           transform="translate(423.4229,264.4844)">
          <path
             d="m 0,0 c -25.555,-40.183 -36.367,-75.586 -24.259,-84.801 12.109,-9.217 43.351,10.639 75.272,45.975 -2.836,10.858 -9.191,20.883 -18.814,28.207 C 22.576,-3.296 11.221,0.158 0,0"
             style="fill:#b0641d;fill-opacity:1;fill-rule:evenodd;stroke:none"
             id="path6985" />
        </g>
        <g
           id="g6987"
           transform="translate(572.5166,271.0107)">
          <path
             d="m 0,0 c -8.861,13.193 -52.477,-0.578 -97.417,-30.763 -44.941,-30.181 -74.189,-65.347 -65.327,-78.541 8.861,-13.193 52.476,0.579 97.417,30.763 C -20.387,-48.359 8.861,-13.193 0,0"
             style="fill:#da8a38;fill-opacity:1;fill-rule:evenodd;stroke:none"
             id="path6989" />
        </g>
        <g
           id="g6991"
           transform="translate(528.2432,268.6953)">
          <path
             d="m 0,0 c -15.864,-6.114 -34.388,-15.85 -53.144,-28.447 -3.562,-2.391 -7.023,-4.814 -10.375,-7.254 8.696,-4.286 16.419,-10.836 22.213,-19.461 5.791,-8.625 8.932,-18.253 9.611,-27.923 3.528,2.18 7.081,4.467 10.641,6.859 18.756,12.596 34.775,26.062 46.435,38.434 -2.982,6.888 -6.627,13.602 -10.962,20.058 C 10.084,-11.28 5.247,-5.367 0,0"
             style="fill:#7e2b1a;fill-opacity:1;fill-rule:evenodd;stroke:none"
             id="path6993" />
        </g>
        <g
           id="g6995"
           transform="translate(453.2168,224.209)">
          <path
             d="m 0,0 c -32.069,-25.698 -50.767,-51.601 -43.444,-62.502 7.322,-10.901 38.371,-3.392 74.29,16.573 0.71,9.66 -1.687,19.618 -7.505,28.281 C 17.522,-8.984 9.21,-2.997 0,0"
             style="fill:#b0641d;fill-opacity:1;fill-rule:evenodd;stroke:none"
             id="path6997" />
        </g>
        <g
           id="g6999"
           transform="translate(232.4707,420.9365)">
          <path
             d="M 0,0 C 18.877,6.307 51.594,-40.71 73.071,-105.013 94.55,-169.314 96.656,-226.554 77.777,-232.86 58.899,-239.166 26.184,-192.15 4.706,-127.848 -16.772,-63.545 -18.879,-6.306 0,0"
             style="fill:#da8a38;fill-opacity:1;fill-rule:evenodd;stroke:none"
             id="path7001" />
        </g>
        <g
           id="g7003"
           transform="translate(274.5996,384.7773)">
          <path
             d="m 0,0 c 11.057,-18.195 21.978,-42.016 30.942,-68.853 1.703,-5.094 3.282,-10.145 4.74,-15.129 -11.901,2.4 -24.572,1.813 -36.912,-2.308 -12.34,-4.122 -22.818,-11.269 -30.888,-20.338 -1.83,4.861 -3.603,9.844 -5.305,14.94 -8.964,26.838 -14.551,52.441 -16.649,73.628 8.225,4.547 16.974,8.42 26.21,11.504 C -18.627,-3.472 -9.307,-1.307 0,0"
             style="fill:#7e2b1a;fill-opacity:1;fill-rule:evenodd;stroke:none"
             id="path7005" />
        </g>
        <g
           id="g7007"
           transform="translate(314.9707,283.2813)">
          <path
             d="m 0,0 c 12.148,-50.009 10.877,-89.994 -4.723,-95.205 -15.598,-5.21 -40.642,25.986 -60.991,73.256 6.685,10.12 16.679,18.163 29.075,22.303 C -24.244,4.493 -11.423,4.072 0,0"
             style="fill:#b0641d;fill-opacity:1;fill-rule:evenodd;stroke:none"
             id="path7009" />
        </g>
        <g
           id="g7011"
           transform="translate(147.6025,360.4521)">
          <path
             d="m 0,0 c 14.655,11.152 57.333,-20.271 95.326,-70.188 37.99,-49.918 56.907,-99.427 42.253,-110.58 -14.655,-11.155 -57.335,20.27 -95.326,70.187 C 4.263,-60.664 -14.655,-11.154 0,0"
             style="fill:#da8a38;fill-opacity:1;fill-rule:evenodd;stroke:none"
             id="path7013" />
        </g>
        <g
           id="g7015"
           transform="translate(195.29,341.3457)">
          <path
             d="m 0,0 c 15.109,-12.642 31.782,-30.249 47.639,-51.082 3.008,-3.956 5.899,-7.908 8.661,-11.84 -11.14,-1.447 -22.061,-5.739 -31.642,-13.03 -9.578,-7.291 -16.627,-16.676 -20.99,-27.026 -3.052,3.711 -6.092,7.548 -9.103,11.503 -15.856,20.833 -28.385,41.595 -36.542,59.526 5.849,6.437 12.358,12.437 19.527,17.895 C -15.281,-8.597 -7.765,-3.923 0,0"
             style="fill:#7e2b1a;fill-opacity:1;fill-rule:evenodd;stroke:none"
             id="path7017" />
        </g>
        <g
           id="g7019"
           transform="translate(260.9229,264.4844)">
          <path
             d="m 0,0 c 25.555,-40.183 36.367,-75.586 24.259,-84.801 -12.11,-9.217 -43.351,10.639 -75.274,45.975 2.838,10.858 9.193,20.883 18.816,28.207 C -22.577,-3.296 -11.221,0.158 0,0"
             style="fill:#b0641d;fill-opacity:1;fill-rule:evenodd;stroke:none"
             id="path7021" />
        </g>
        <g
           id="g7023"
           transform="translate(111.8301,271.0107)">
          <path
             d="m 0,0 c 8.861,13.193 52.476,-0.578 97.416,-30.763 44.941,-30.181 74.189,-65.347 65.327,-78.541 -8.86,-13.193 -52.475,0.579 -97.417,30.763 C 20.386,-48.359 -8.862,-13.193 0,0"
             style="fill:#da8a38;fill-opacity:1;fill-rule:evenodd;stroke:none"
             id="path7025" />
        </g>
        <g
           id="g7027"
           transform="translate(156.1025,268.6953)">
          <path
             d="m 0,0 c 15.865,-6.114 34.389,-15.85 53.144,-28.447 3.56,-2.391 7.023,-4.814 10.375,-7.254 -8.696,-4.286 -16.42,-10.836 -22.213,-19.461 -5.791,-8.625 -8.932,-18.253 -9.611,-27.923 -3.528,2.18 -7.08,4.467 -10.641,6.859 -18.756,12.596 -34.776,26.062 -46.436,38.434 2.984,6.888 6.627,13.602 10.963,20.058 C -10.084,-11.28 -5.246,-5.367 0,0"
             style="fill:#7e2b1a;fill-opacity:1;fill-rule:evenodd;stroke:none"
             id="path7029" />
        </g>
        <g
           id="g7031"
           transform="translate(231.1289,224.209)">
          <path
             d="m 0,0 c 32.068,-25.698 50.767,-51.601 43.444,-62.502 -7.322,-10.901 -38.372,-3.392 -74.29,16.573 -0.71,9.66 1.689,19.618 7.505,28.281 C -17.521,-8.984 -9.21,-2.997 0,0"
             style="fill:#b0641d;fill-opacity:1;fill-rule:evenodd;stroke:none"
             id="path7033" />
        </g>
        <g
           id="g7035"
           transform="translate(342.792,193.3682)">
          <path
             d="m 0,0 c 19.851,0 36.039,55.143 36.039,122.753 0,67.609 -16.188,122.754 -36.039,122.754 -19.849,0 -36.039,-55.145 -36.039,-122.754 C -36.039,55.143 -19.849,0 0,0"
             style="fill:#da8a38;fill-opacity:1;fill-rule:evenodd;stroke:none"
             id="path7037" />
        </g>
        <g
           id="g7039"
           transform="translate(371.2969,391.2305)">
          <path
             d="m 0,0 c 4.723,-20.76 7.534,-46.815 7.534,-75.109 0,-5.37 -0.101,-10.662 -0.298,-15.851 -10.528,6.046 -22.729,9.504 -35.741,9.504 -13.012,0 -25.213,-3.458 -35.74,-9.504 -0.196,5.189 -0.299,10.481 -0.299,15.851 0,28.294 2.813,54.349 7.535,75.109 9.241,1.709 18.768,2.608 28.504,2.608 C -18.767,2.608 -9.243,1.709 0,0"
             style="fill:#7e2b1a;fill-opacity:1;fill-rule:evenodd;stroke:none"
             id="path7041" />
        </g>
        <g
           id="g7043"
           transform="translate(377.4346,282.1729)">
          <path
             d="m 0,0 c -4.325,-51.281 -18.196,-88.805 -34.643,-88.805 -16.444,0 -30.316,37.524 -34.641,88.805 9.547,7.481 21.574,11.942 34.641,11.942 C -21.573,11.942 -9.546,7.481 0,0"
             style="fill:#b0641d;fill-opacity:1;fill-rule:evenodd;stroke:none"
             id="path7045" />
        </g>
        <g
           id="g7047"
           transform="translate(342.792,253.6709)">
          <path
             d="m 0,0 c 74.32,0 134.568,-56.68 134.568,-107.559 0,-50.877 -60.248,-55.467 -134.568,-55.467 -74.319,0 -134.567,4.59 -134.567,55.467 C -134.567,-56.68 -74.319,0 0,0"
             style="fill:#7e2b1a;fill-opacity:1;fill-rule:evenodd;stroke:none"
             id="path7049" />
        </g>
        <g
           id="g7051"
           transform="translate(404.6221,240.0537)">
          <path
             d="m 0,0 c 43.209,-19.868 72.738,-58.323 72.738,-93.941 0,-50.878 -60.248,-55.468 -134.568,-55.468 -53.208,0 -99.197,2.357 -121.034,22.362 2.258,-0.537 4.492,-1.024 6.698,-1.45 59.403,-10.918 192.735,-12.709 200,70.403 C 25.66,-37.208 14.761,-16.768 0,0"
             style="fill:#5c2214;fill-opacity:1;fill-rule:evenodd;stroke:none"
             id="path7053" />
        </g>
        <g
           id="g7055"
           transform="translate(316.1758,495.0879)">
          <path
             d="m 0,0 h 25.997 25.998 c -22.63,-29.061 -16.385,-287.319 0,-306.729 15.247,-18.066 -64.116,-19.677 -51.995,0 C 19.307,-275.389 22.629,-29.061 0,0"
             style="fill:#f68294;fill-opacity:1;fill-rule:evenodd;stroke:none"
             id="path7057" />
        </g>
        <g
           id="g7059"
           transform="translate(359.0742,581.9326)">
          <path
             d="m 0,0 c 5.489,3.552 8.964,10.093 8.964,21.657 0,21.113 -11.581,50.972 -25.865,50.972 -14.285,0 -25.866,-29.859 -25.866,-50.972 0,-11.564 3.475,-18.105 8.964,-21.657 7.966,-5.155 10.41,-10.409 16.902,-10.409 6.492,0 8.933,5.254 16.901,10.409"
             style="fill:#f68294;fill-opacity:1;fill-rule:evenodd;stroke:none"
             id="path7061" />
        </g>
        <g
           id="g7063"
           transform="translate(328.8789,589.4766)">
          <path
             d="m 0,0 c 9.723,3.457 9.129,8.898 9.667,20.276 0.26,6.179 0.121,11.842 0.483,18.15 0.15,2.503 0.593,14.933 -0.29,16.509 C 8.804,56.819 5.184,55.191 3.892,54.061 1.508,51.971 -0.854,48.193 -2.455,45.103 -6.994,35.809 -12.557,14.094 -7.526,3.897 -5.72,0.238 -3.16,-0.515 0,0"
             style="fill:#f8a0af;fill-opacity:1;fill-rule:evenodd;stroke:none"
             id="path7065" />
        </g>
        <g
           id="g7067"
           transform="translate(414.2402,544.8379)">
          <path
             d="m 0,0 c -26.061,0 -58.942,-15.222 -58.942,-34 0,-18.779 32.881,-34.002 58.942,-34.002 26.064,0 40.477,15.223 40.477,34.002 C 40.477,-15.222 26.064,0 0,0 m -144.136,0 c 26.062,0 58.943,-15.222 58.943,-34 0,-18.779 -32.881,-34.002 -58.943,-34.002 -26.061,0 -40.474,15.223 -40.474,34.002 0,18.778 14.413,34 40.474,34"
             style="fill:#f68294;fill-opacity:1;fill-rule:evenodd;stroke:none"
             id="path7069" />
        </g>
        <g
           id="g7071"
           transform="translate(276.5371,544.5449)">
          <path
             d="m 0,0 c 24.73,-2.19 52.51,-16.447 52.51,-33.707 0,-18.779 -32.881,-34.002 -58.943,-34.002 -7.528,0 -14.082,1.274 -19.599,3.531 3.53,-0.799 7.242,-1.173 11.794,-0.761 13.963,1.262 33.846,5.548 42.963,16.986 C 44.584,-28.058 18.064,-19.833 5.193,-11.06 1.724,-8.428 -0.979,-4.028 0,0"
             style="fill:#f46f82;fill-opacity:1;fill-rule:evenodd;stroke:none"
             id="path7073" />
        </g>
        <g
           id="g7075"
           transform="translate(437.9785,539.3262)">
          <path
             d="m 0,0 c 16.159,-34.856 -9.211,-60.673 -63.163,-52.431 11.504,-6.212 26.325,-10.059 39.425,-10.059 26.063,0 40.476,15.222 40.476,34.002 C 16.738,-16.561 10.922,-6.07 0,0"
             style="fill:#f46f82;fill-opacity:1;fill-rule:evenodd;stroke:none"
             id="path7077" />
        </g>
        <g
           id="g7079"
           transform="translate(303.8818,525.0518)">
          <path
             d="M 0,0 C 22.19,0 40.285,18.098 40.285,40.285 40.285,62.475 22.19,80.572 0,80.572 -22.187,80.572 -40.286,62.475 -40.286,40.285 -40.286,18.098 -22.187,0 0,0"
             style="fill:#edf6f8;fill-opacity:1;fill-rule:evenodd;stroke:none"
             id="path7081" />
        </g>
        <g
           id="g7083"
           transform="translate(311.8369,532.2461)">
          <path
             d="M 0,0 C 15.014,0 27.259,12.246 27.259,27.26 27.259,42.273 15.014,54.518 0,54.518 -15.014,54.518 -27.261,42.273 -27.261,27.26 -27.261,12.246 -15.014,0 0,0"
             style="fill:#ffffff;fill-opacity:1;fill-rule:evenodd;stroke:none"
             id="path7085" />
        </g>
        <g
           id="g7087"
           transform="translate(311.8369,550.8975)">
          <path
             d="m 0,0 c 4.74,0 8.608,3.868 8.608,8.608 0,4.741 -3.868,8.607 -8.608,8.607 -4.741,0 -8.608,-3.866 -8.608,-8.607 C -8.608,3.868 -4.741,0 0,0"
             style="fill:#3f3f40;fill-opacity:1;fill-rule:evenodd;stroke:none"
             id="path7089" />
        </g>
        <g
           id="g7091"
           transform="translate(317.5273,559.0742)">
          <path
             d="M 0,0 C 2.31,0 4.193,1.882 4.193,4.193 4.193,6.501 2.31,8.387 0,8.387 -2.31,8.387 -4.193,6.501 -4.193,4.193 -4.193,1.882 -2.31,0 0,0"
             style="fill:#ffffff;fill-opacity:1;fill-rule:evenodd;stroke:none"
             id="path7093" />
        </g>
        <g
           id="g7095"
           transform="translate(380.4639,525.0518)">
          <path
             d="M 0,0 C 22.187,0 40.286,18.098 40.286,40.285 40.286,62.475 22.187,80.572 0,80.572 -22.187,80.572 -40.286,62.475 -40.286,40.285 -40.286,18.098 -22.187,0 0,0"
             style="fill:#edf6f8;fill-opacity:1;fill-rule:evenodd;stroke:none"
             id="path7097" />
        </g>
        <g
           id="g7099"
           transform="translate(372.5088,532.2461)">
          <path
             d="M 0,0 C 15.016,0 27.261,12.246 27.261,27.26 27.261,42.273 15.016,54.518 0,54.518 -15.014,54.518 -27.259,42.273 -27.259,27.26 -27.259,12.246 -15.014,0 0,0"
             style="fill:#ffffff;fill-opacity:1;fill-rule:evenodd;stroke:none"
             id="path7101" />
        </g>
        <g
           id="g7103"
           transform="translate(372.5088,550.8975)">
          <path
             d="m 0,0 c 4.742,0 8.608,3.868 8.608,8.608 0,4.741 -3.866,8.607 -8.608,8.607 -4.74,0 -8.605,-3.866 -8.605,-8.607 C -8.605,3.868 -4.74,0 0,0"
             style="fill:#3f3f40;fill-opacity:1;fill-rule:evenodd;stroke:none"
             id="path7105" />
        </g>
        <g
           id="g7107"
           transform="translate(378.2012,559.0742)">
          <path
             d="M 0,0 C 2.31,0 4.193,1.882 4.193,4.193 4.193,6.501 2.31,8.387 0,8.387 -2.31,8.387 -4.193,6.501 -4.193,4.193 -4.193,1.882 -2.31,0 0,0"
             style="fill:#ffffff;fill-opacity:1;fill-rule:evenodd;stroke:none"
             id="path7109" />
        </g>
        <g
           id="g7111"
           transform="translate(359.0742,538.1016)">
          <path
             d="m 0,0 c 5.489,-3.552 8.964,-10.093 8.964,-21.655 0,-21.115 -11.581,-50.973 -25.865,-50.973 -14.285,0 -25.866,29.858 -25.866,50.973 0,11.562 3.475,18.103 8.964,21.655 7.966,5.157 10.41,10.409 16.902,10.409 C -10.409,10.409 -7.968,5.157 0,0"
             style="fill:#db5b1d;fill-opacity:1;fill-rule:evenodd;stroke:none"
             id="path7113" />
        </g>
        <g
           id="g7115"
           transform="translate(328.8789,530.5596)">
          <path
             d="m 0,0 c 9.723,-3.459 9.129,-8.9 9.667,-20.276 0.26,-6.179 0.121,-11.844 0.483,-18.152 0.15,-2.503 0.593,-14.931 -0.29,-16.507 -1.056,-1.886 -4.676,-0.256 -5.968,0.873 -2.384,2.089 -4.746,5.867 -6.347,8.958 -4.539,9.293 -10.102,31.008 -5.071,41.205 C -5.72,-0.24 -3.16,0.513 0,0"
             style="fill:#ed6827;fill-opacity:1;fill-rule:evenodd;stroke:none"
             id="path7117" />
        </g>
      </g>
    </g>
  </g>
</svg>
